<svg width="32" height="31" viewBox="0 0 32 31" fill="none" xmlns="http://www.w3.org/2000/svg">
<path d="M16.1759 6.36151C16.0778 6.12011 18.7896 4.31488 19.0619 4.14695C22.2311 2.19478 25.8795 1.97437 28.9507 3.5592C30.7804 4.43033 31.9457 6.45597 31.9675 8.80697C31.9239 12.8163 28.4607 16.5737 25.7162 18.7253C23.2767 20.6354 20.6084 22.0733 18.2887 24.1829C16.5679 25.5893 15.0214 27.2791 13.7145 29.1893C13.4205 29.7246 13.0502 30.2074 12.6146 30.6062C11.8196 31.2149 10.6107 30.4383 10.1206 29.7666C9.47805 28.8849 9.44538 27.4156 9.04243 26.3555C8.61769 25.285 8.07314 24.2984 7.43058 23.4063C4.71878 19.4285 -0.399865 16.941 0.0248745 10.9061C0.210018 5.207 3.13962 0.389546 8.38897 0.0117068C11.9611 -0.219195 14.7492 3.00294 16.165 6.372L16.1759 6.36151ZM12.5274 24.4348C16.0452 19.0716 22.1549 17.7282 26.2825 13.2151C27.23 12.176 28.5369 10.4758 28.1448 8.91192C27.7527 7.3271 25.8251 6.63439 24.5291 6.49795C22.5579 6.3825 20.5648 7.14867 18.9639 8.64954C17.853 9.62562 17.0689 10.9271 15.8818 11.7982C15.4789 12.1446 14.9779 12.281 14.5205 12.155C13.4096 11.9136 13.0067 10.8431 12.7562 9.6781C12.375 8.21922 11.8413 6.83381 11.1661 5.55335C9.83743 3.18136 7.02762 3.86357 5.35044 5.80524C3.65148 7.76791 3.09605 10.6437 3.95642 13.0262C4.40295 14.0442 5.02371 14.9364 5.78606 15.6606C7.09296 16.9305 8.33452 18.2739 9.51072 19.7013C10.0988 20.4255 10.6434 21.2022 11.1443 22.0104C11.6344 22.7975 11.972 23.7106 12.5274 24.4348Z" fill="#63777B"/>
</svg>
